<?xml version="1.0" standalone="no"?>
<!DOCTYPE svg PUBLIC "-//W3C//DTD SVG 20010904//EN"
 "http://www.w3.org/TR/2001/REC-SVG-20010904/DTD/svg10.dtd">
<svg version="1.0" xmlns="http://www.w3.org/2000/svg"
 width="124.000000pt" height="124.000000pt" viewBox="0 0 124.000000 124.000000"
 preserveAspectRatio="xMidYMid meet">
<metadata>
Created by potrace 1.11, written by Peter Selinger 2001-2013
</metadata>
<g transform="translate(0.000000,124.000000) scale(0.100000,-0.100000)"
fill="#000000" stroke="none">
<path d="M465 1125 c-214 -75 -346 -308 -294 -521 40 -165 190 -318 336 -341
19 -3 37 -12 40 -19 3 -8 9 -14 15 -14 5 0 6 4 3 10 -3 5 -1 10 4 10 18 0 12
-19 -9 -30 -11 -6 -20 -15 -20 -21 0 -6 4 -8 9 -5 4 3 17 -2 27 -10 10 -9 12
-12 4 -8 -8 4 -32 9 -55 10 -58 2 -61 3 -45 13 8 6 19 7 25 4 5 -4 1 3 -9 15
-21 25 -36 31 -16 7 15 -18 -1 -20 -18 -3 -9 9 -12 9 -12 0 0 -7 5 -12 11 -12
8 0 7 -6 -2 -16 -12 -15 -14 -14 -21 7 -4 16 -6 10 -4 -19 2 -23 7 -46 11 -50
4 -4 4 4 1 18 l-7 25 21 -24 c11 -13 23 -21 27 -18 3 4 11 3 17 -3 8 -6 12 -3
12 11 0 22 -7 24 -25 6 -11 -10 -12 -9 -6 2 6 10 4 12 -5 6 -9 -6 -11 -4 -5 5
6 9 4 11 -5 5 -9 -5 -11 -4 -6 4 5 7 12 9 19 3 7 -5 25 -7 41 -6 26 3 27 2 10
-11 -18 -13 -18 -14 -2 -20 10 -4 15 -12 11 -19 -4 -6 1 -5 11 3 15 13 19 13
27 0 6 -10 9 -10 9 -1 0 6 5 12 11 12 5 0 8 -4 4 -9 -3 -6 4 -8 17 -5 13 3 34
7 48 8 14 2 36 6 49 11 l23 7 -21 19 c-22 21 -28 35 -11 24 6 -3 10 -2 10 4 0
5 52 56 116 112 65 57 131 125 149 153 117 184 93 409 -60 561 -124 124 -299
166 -460 110z m132 -889 c-4 -9 1 -16 11 -18 11 -3 8 -6 -10 -9 -24 -6 -25 -4
-15 18 11 25 23 32 14 9z m-16 -83 c13 -16 12 -17 -3 -4 -17 13 -22 21 -14 21
2 0 10 -8 17 -17z"/>
<path d="M505 235 c4 -11 8 -26 8 -32 1 -18 7 -16 22 4 7 9 10 23 7 31 -4 11
-6 11 -13 0 -7 -11 -11 -10 -20 2 -9 12 -10 11 -4 -5z"/>
<path d="M741 204 c-16 -21 -19 -30 -10 -41 7 -7 20 -11 30 -8 15 5 18 2 13
-12 -6 -16 -5 -15 9 2 9 11 17 16 17 10 0 -5 4 -4 9 4 8 12 12 12 24 2 12 -10
15 -10 13 1 -2 17 -36 66 -36 52 0 -5 6 -16 13 -23 10 -11 9 -13 -6 -7 -10 3
-21 6 -23 6 -3 0 -3 4 1 9 3 6 -3 15 -14 20 -16 9 -23 6 -40 -15z m44 -4 c-3
-5 2 -13 11 -18 15 -8 15 -10 0 -15 -8 -3 -18 -2 -21 3 -3 5 -12 7 -20 3 -18
-6 -19 1 -5 27 6 11 17 17 25 14 8 -4 13 -10 10 -14z"/>
<path d="M756 193 c-4 -9 -4 -14 0 -10 4 4 14 1 23 -6 14 -11 15 -10 1 8 -8
11 -15 21 -16 23 -1 2 -5 -5 -8 -15z"/>
<path d="M356 207 c3 -10 9 -15 12 -12 3 3 0 11 -7 18 -10 9 -11 8 -5 -6z"/>
<path d="M865 180 c-3 -6 1 -7 9 -4 18 7 21 14 7 14 -6 0 -13 -4 -16 -10z"/>
</g>
</svg>
